<svg xmlns="http://www.w3.org/2000/svg" width="96" height="2112" fill="none" viewBox="0 0 96 2112"><path fill="#39b6ad" d="M96 0v48H48V0z"/><path fill="#feed01" d="M48 0v48H0V0z"/><path fill="#ef7c01" d="M96 48v48H48V48z"/><path fill="#feed01" d="M48 48v48H0V48z"/><path fill="#39b6ad" d="M96 96v48H48V96zm-48 0v48H0V96z"/><path fill="#ef7c01" d="M96 144v48H48v-48z"/><path fill="#39b6ad" d="M48 144v48H0v-48z"/><path fill="#ef7c01" d="M96 192v48H0v-48z"/><path fill="#39b6ad" d="M96 240v48H48v-48z"/><path fill="#feed01" d="M48 240v48H0v-48z"/><path fill="#009fe5" d="M96 288v48H0v-48z"/><path fill="#ef7c01" d="M96 336v48H0v-48z"/><path fill="#a3dafa" d="M96 384v48H0v-48z"/><path fill="#009fe5" d="M96 432v48H48v-48z"/><path fill="#39b6ad" d="M48 432v48H0v-48z"/><path fill="#009fe5" d="M96 480v48H0v-48z"/><path fill="#59348d" d="M96 528v48H0v-48z"/><path fill="#ef7c01" d="M96 576v48H48v-48z"/><path fill="#39b6ad" d="M48 576v48H0v-48z"/><path fill="#f6b5d2" d="M96 624v48H0v-48z"/><path fill="#a3dafa" d="M96 672v48H48v-48z"/><path fill="#39b6ad" d="M48 672v48H0v-48z"/><path fill="#e7007f" d="M96 720v48H48v-48z"/><path fill="#39b6ad" d="M48 720v48H0v-48zm48 48v48H48v-48zm-48 0v48H0v-48z"/><path fill="#e7007f" d="M96 816v48H48v-48z"/><path fill="#39b6ad" d="M48 816v48H0v-48z"/><path fill="#fff" d="M96 864v48H48v-48z"/><path fill="#feed01" d="M48 864v48H0v-48z"/><path fill="#009fe5" d="M96 912v48H48v-48z"/><path fill="#39b6ad" d="M48 912v48H0v-48zm48 48v48H48v-48zm-48 0v48H0v-48z"/><path fill="#ef7c01" d="M96 1008v48H48v-48z"/><path fill="#39b6ad" d="M48 1008v48H0v-48z"/><path fill="#ef7c01" d="M96 1056v48H0v-48z"/><path fill="#9285bf" d="M96 1104v48H0v-48z"/><path fill="#39b6ad" d="M96 1152v48H48v-48z"/><path fill="#feed01" d="M48 1152v48H0v-48zm48 48v48H48v-48z"/><path fill="#39b6ad" d="M48 1200v48H0v-48z"/><path fill="#fff" d="M96 1248v48H48v-48z"/><path fill="#feed01" d="M48 1248v48H0v-48z"/><path fill="#39b6ad" d="M96 1296v48H48v-48z"/><path fill="#feed01" d="M48 1296v48H0v-48z"/><path fill="#e7007f" d="M96 1344v48H48v-48z"/><path fill="#39b6ad" d="M48 1344v48H0v-48zm48 48v48H48v-48zm-48 0v48H0v-48z"/><path fill="#feed01" d="M96 1440v48H48v-48z"/><path fill="#39b6ad" d="M48 1440v48H0v-48z"/><path fill="#a3dafa" d="M96 1488v48H48v-48z"/><path fill="#39b6ad" d="M48 1488v48H0v-48z"/><path fill="#e7007f" d="M96 1536v48H48v-48z"/><path fill="#39b6ad" d="M48 1536v48H0v-48z"/><path fill="#59348d" d="M96 1584v48H0v-48z"/><path fill="#39b6ad" d="M96 1632v48H48v-48zm-48 0v48H0v-48z"/><path fill="#ef7c01" d="M96 1680v48H48v-48z"/><path fill="#39b6ad" d="M48 1680v48H0v-48z"/><path fill="#009fe5" d="M96 1728v48H0v-48zm0 48v48H48v-48z"/><path fill="#39b6ad" d="M48 1776v48H0v-48zm48 48v48H48v-48zm-48 0v48H0v-48z"/><path fill="#fff" d="M96 1872v48H48v-48z"/><path fill="#feed01" d="M48 1872v48H0v-48z"/><path fill="#009fe5" d="M96 1920v48H0v-48z"/><path fill="#a3dafa" d="M96 1968v48H48v-48z"/><path fill="#39b6ad" d="M48 1968v48H0v-48z"/><path fill="#ef7c01" d="M96 2016v48H48v-48z"/><path fill="#39b6ad" d="M48 2016v48H0v-48z"/><path fill="#009fe5" d="M96 2064v48H48v-48z"/><path fill="#39b6ad" d="M48 2064v48H0v-48z"/></svg>